<svg width="26" height="21" viewBox="0 0 26 21" fill="none" xmlns="http://www.w3.org/2000/svg">
<path d="M0.2854 10.419C0.2854 9.85743 0.71582 9.39331 1.27426 9.31986L1.42951 9.30974L21.5414 9.31062L14.2756 2.29476C13.8278 1.8625 13.8263 1.16014 14.2721 0.726011C14.6774 0.331345 15.3129 0.294216 15.7615 0.615494L15.8901 0.722631L25.1193 9.63236C25.1783 9.68934 25.2295 9.751 25.273 9.81612C25.2853 9.83573 25.2978 9.85578 25.3097 9.87624C25.3206 9.89377 25.3305 9.91198 25.3398 9.93039C25.3527 9.95717 25.3653 9.98485 25.3768 10.0131C25.3861 10.0349 25.3938 10.056 25.4009 10.0774C25.4094 10.1038 25.4176 10.132 25.4246 10.1607C25.4298 10.1807 25.434 10.1999 25.4376 10.2192C25.4427 10.248 25.447 10.2777 25.4501 10.3078C25.4528 10.3307 25.4544 10.3535 25.4553 10.3762C25.4555 10.39 25.4558 10.4045 25.4558 10.419L25.4552 10.462C25.4543 10.4838 25.4528 10.5055 25.4506 10.5272L25.4558 10.419C25.4558 10.489 25.4491 10.5575 25.4363 10.6239C25.4333 10.6398 25.4298 10.656 25.4259 10.6723C25.4178 10.7057 25.4084 10.7378 25.3976 10.7693C25.3923 10.785 25.3861 10.8017 25.3795 10.8183C25.3661 10.8517 25.3516 10.8835 25.3356 10.9145C25.3282 10.9291 25.3198 10.9444 25.3111 10.9595C25.2968 10.9841 25.2821 11.0075 25.2665 11.0303C25.2555 11.0465 25.2434 11.0633 25.2307 11.0799L25.2208 11.0926C25.1899 11.1317 25.1565 11.1687 25.1207 11.2034L25.1193 11.2044L15.8902 20.1156C15.4424 20.5479 14.718 20.5465 14.2722 20.1124C13.8668 19.7177 13.8312 19.1014 14.1645 18.6678L14.2755 18.5436L21.5384 11.5292L1.42951 11.5283C0.797635 11.5283 0.2854 11.0317 0.2854 10.419Z" fill="#223237"/>
</svg>
