<svg xmlns="http://www.w3.org/2000/svg" width="77.723" height="114" viewBox="0 0 77.723 114">
  <g id="ic-location-pin" transform="translate(1.277 1)">
    <path id="Path_381" data-name="Path 381" d="M48.517,86.231,62.935,66.565c6.447-8.789,12.233-17.62,12.233-28.983A37.627,37.627,0,0,0,37.737,0h-.158A37.624,37.624,0,0,0,0,37.583c0,11.36,5.786,20.193,12.233,28.983L26.65,86.231H9.886L.169,112H75L65.282,86.231ZM17.524,62.684c-6-8.178-10.961-15.712-10.961-25.1A31.054,31.054,0,0,1,37.435,6.562h.149A31.058,31.058,0,0,1,68.6,37.583c0,9.389-4.965,16.925-10.961,25.1L37.61,90.078ZM9.658,105.437l4.767-12.644H31.461l6.062,8.266s5.066-6.667,6.23-8.266h16.99l4.766,12.644Zm0,0" fill="#cb4a3e" stroke="#fff" stroke-width="2"/>
    <path id="Path_382" data-name="Path 382" d="M112.291,89.146A23.146,23.146,0,1,0,89.145,112.29a23.172,23.172,0,0,0,23.147-23.144ZM89.145,105.727a16.582,16.582,0,1,1,16.584-16.581A16.6,16.6,0,0,1,89.145,105.727Zm0,0" transform="translate(-51.561 -51.563)" fill="#cb4a3e" stroke="#fff" stroke-width="2"/>
  </g>
</svg>
