<svg id="ic-map" xmlns="http://www.w3.org/2000/svg" width="60" height="70" viewBox="0 0 60 70">
  <path id="Path_361" data-name="Path 361" d="M0,0H60V70H0Z" fill="none"/>
  <path id="Path_362" data-name="Path 362" d="M30,60.913l14.85-15.43a22.427,22.427,0,0,0,0-30.857,20.447,20.447,0,0,0-29.7,0,22.427,22.427,0,0,0,0,30.857Zm0,8.815L10.908,49.891a28.834,28.834,0,0,1,0-39.674,26.289,26.289,0,0,1,38.184,0,28.834,28.834,0,0,1,0,39.674Zm0-33.44a6.239,6.239,0,1,0-6-6.234A6.12,6.12,0,0,0,30,36.288Zm0,6.234A12.241,12.241,0,0,1,18,30.054,12.241,12.241,0,0,1,30,17.585,12.241,12.241,0,0,1,42,30.054,12.241,12.241,0,0,1,30,42.522Z" transform="translate(0)" fill="#fff"/>
</svg>
