<svg id="ic-phone" xmlns="http://www.w3.org/2000/svg" width="60" height="60" viewBox="0 0 60 60">
  <path id="Path_363" data-name="Path 363" d="M0,0H60V60H0Z" fill="none"/>
  <path id="Path_364" data-name="Path 364" d="M22.1,26.046A31.668,31.668,0,0,0,33.954,37.9l2.652-3.714a3,3,0,0,1,3.882-.888,34.266,34.266,0,0,0,13.749,4.092A3,3,0,0,1,57,40.383V53.769a3,3,0,0,1-2.695,2.985A46.528,46.528,0,0,1,3.246,5.694,3,3,0,0,1,6.231,3H19.617a3,3,0,0,1,2.991,2.763A34.266,34.266,0,0,0,26.7,19.512a3,3,0,0,1-.888,3.882L22.1,26.046Zm-7.566-1.971L20.232,20A40.23,40.23,0,0,1,16.941,9H9.03C9.012,9.5,9,10,9,10.5A40.495,40.495,0,0,0,49.5,51c.5,0,1-.009,1.5-.03V43.059a40.23,40.23,0,0,1-11-3.291l-4.071,5.7a37.326,37.326,0,0,1-4.764-2.25l-.174-.1A37.668,37.668,0,0,1,16.881,29.013l-.1-.174a37.326,37.326,0,0,1-2.25-4.764Z" transform="translate(0 0)" fill="#cb4a3e"/>
</svg>
