<svg width="30" height="33" viewBox="0 0 30 33" fill="none" xmlns="http://www.w3.org/2000/svg">
<path d="M12.75 0.745345L1.5 9.18284C0.5625 9.89534 0 11.0016 0 12.1828V29.0578C0 31.1203 1.6875 32.8078 3.75 32.8078H26.25C28.3125 32.8078 30 31.1203 30 29.0578V12.1828C30 11.0016 29.4375 9.89534 28.5 9.18284L17.25 0.745345C16.5997 0.26138 15.8106 0 15 0C14.1894 0 13.4003 0.26138 12.75 0.745345ZM15 26.2453C13.9688 26.2453 13.125 25.4016 13.125 24.3703H16.875C16.875 25.4016 16.0312 26.2453 15 26.2453ZM21.5625 23.4328H8.4375C7.9125 23.4328 7.5 23.0203 7.5 22.4953C7.5 21.9703 7.9125 21.5578 8.4375 21.5578H9.375V17.1703C9.375 14.2828 10.9125 11.8828 13.5938 11.2453V10.7766C13.5938 10.0078 14.2312 9.37035 15 9.37035C15.7688 9.37035 16.4062 10.0078 16.4062 10.7766V11.2453C19.1063 11.8828 20.625 14.2828 20.625 17.1703V21.5578H21.5625C22.0875 21.5578 22.5 21.9703 22.5 22.4953C22.5 23.0203 22.0875 23.4328 21.5625 23.4328Z" fill="#EFCC49"/>
</svg>
